<svg width="254" height="38" viewBox="0 0 254 38" fill="none" xmlns="http://www.w3.org/2000/svg">
<g clip-path="url(#clip0_162_2724)">
<path d="M62.258 37.9832C50.7934 37.9832 39.3287 37.9832 27.8475 37.9832C19.6893 37.9832 11.5477 37.9832 3.38955 37.9832C1.76123 37.9832 0.465232 36.9762 0.0996926 35.4488C0.0332308 35.1634 0.0332308 34.8445 0.0332308 34.5592C0.0166154 24.1864 0.0498463 13.8304 0 3.4576C0 1.82951 1.21293 0 3.47262 0C7.46033 0.0167845 11.4314 0 15.4191 0C24.9065 0 34.3939 0 43.8813 0C49.8297 0 55.778 0 61.7097 0C79.0728 0 96.4359 0 113.799 0C116.275 0 118.75 0 121.21 0C122.904 0 124.084 0.889576 124.566 2.51767C124.649 2.803 124.666 3.10512 124.666 3.40724C124.666 13.7465 124.666 24.1025 124.666 34.4417C124.666 36.5398 123.419 37.8825 121.326 37.9496C119.415 38.0168 117.504 37.9664 115.594 37.9664C107.402 37.9664 99.2107 37.9664 91.0193 37.9664H62.2414L62.258 37.9832ZM33.0979 0.738516C27.5816 0.738516 22.0487 0.738516 16.5323 0.738516C12.1459 0.738516 7.7594 0.738516 3.37293 0.738516C1.8277 0.738516 0.714463 1.86307 0.714463 3.35689C0.714463 13.7297 0.714463 24.1193 0.714463 34.492C0.714463 36.1201 1.8277 37.2111 3.43939 37.2111C11.3816 37.2111 19.3237 37.2111 27.2659 37.2111C36.9361 37.2111 46.6229 37.2615 56.2931 37.2783C58.0543 37.2783 59.8321 37.2111 61.5934 37.2111C71.1805 37.2111 80.7676 37.2111 90.3713 37.2111C100.606 37.2111 110.842 37.2615 121.077 37.2783C122.888 37.2783 124.001 36.1537 124.001 34.3242C124.001 23.985 124.001 13.629 124.001 3.28975C124.001 2.803 123.785 2.28269 123.519 1.86307C122.921 0.923145 121.974 0.704947 120.91 0.704947C100.989 0.704947 81.0833 0.704947 61.1614 0.704947C51.8069 0.704947 42.469 0.704947 33.1145 0.704947L33.0979 0.738516Z" fill="#181818"/>
<path d="M191.759 0.0335693C199.285 0.0335693 206.796 0.0335693 214.322 0.0335693C224.807 0.0335693 235.291 0.0335693 245.775 0.0335693C247.42 0.0335693 249.065 0.0335693 250.727 0.0503538C252.604 0.0503538 254 1.44346 254 3.34011C254 10.2889 254 17.2208 254 24.1696C254 27.5769 254 30.9673 254 34.3746C254 36.1034 253.236 37.2951 251.774 37.7818C251.358 37.9161 250.91 37.9832 250.478 37.9832C237.235 37.9832 224.009 37.9832 210.767 37.9832C195.48 37.9832 180.194 37.9832 164.891 37.9832C154.175 37.9832 143.458 37.9832 132.757 37.9832C130.763 37.9832 129.334 36.5398 129.334 34.5424C129.334 31.0848 129.334 27.6272 129.334 24.1864C129.334 17.288 129.334 10.3728 129.334 3.47438C129.334 1.39311 130.697 0.0335693 132.774 0.0335693C139.387 0.0335693 146 0.0335693 152.613 0.0335693C162.682 0.0335693 172.734 0.0335693 182.803 0.0335693C185.777 0.0335693 188.768 0.0335693 191.742 0.0335693H191.759ZM191.626 37.2447H210.767C224.009 37.2447 237.252 37.2447 250.494 37.2447C250.81 37.2447 251.126 37.2447 251.425 37.144C252.588 36.7915 253.302 35.818 253.302 34.5592C253.302 31.0345 253.302 27.5097 253.302 23.985C253.302 17.2712 253.302 10.5574 253.302 3.84364C253.302 1.76237 252.272 0.704947 250.195 0.688163C249.032 0.688163 247.886 0.704947 246.722 0.704947C235.49 0.704947 224.242 0.704947 213.01 0.704947C203.207 0.704947 193.404 0.704947 183.6 0.704947C172.368 0.704947 161.12 0.704947 149.888 0.704947C144.222 0.704947 138.556 0.704947 132.89 0.704947C131.129 0.704947 130.032 1.81272 130.016 3.57509C130.016 4.93463 130.016 6.31096 130.016 7.6705C130.016 16.5327 130.032 25.3781 129.999 34.2403C129.999 35.9019 131.129 37.2783 132.957 37.2447C137.858 37.1608 142.776 37.2111 147.695 37.2111C162.333 37.2111 176.988 37.2111 191.626 37.2111V37.2447Z" fill="#181818"/>
<path d="M10.3015 31.1184C9.71998 30.7324 9.48737 30.0778 9.48737 29.3057C9.48737 23.834 9.48737 18.3622 9.48737 12.8905C9.48737 11.0442 9.47075 9.19792 9.48737 7.36842C9.48737 6.96559 9.6369 6.5292 9.81967 6.17672C10.1021 5.60605 10.2184 5.62284 10.6504 6.05923C12.5612 7.98944 14.472 9.91966 16.3828 11.8331C18.4098 13.8808 20.4535 15.9453 22.4806 17.993C22.6302 18.144 22.7631 18.2951 22.8628 18.4126C18.6591 22.6591 14.4886 26.872 10.2849 31.1184H10.3015Z" fill="#181818"/>
<path d="M27.2491 14.099C25.8701 15.4753 24.5408 16.8013 23.2448 18.0937C19.1242 13.9311 14.9371 9.70144 10.7334 5.45497C11.2817 5.08571 11.8965 5.16963 12.4614 5.45497C13.3254 5.90815 14.1728 6.42847 15.0202 6.91522C18.9082 9.18112 22.8128 11.4638 26.7008 13.7297C26.8836 13.8304 27.0497 13.9479 27.2491 14.0822V14.099Z" fill="#181818"/>
<path d="M48.65 20.1245C49.298 23.28 47.1214 26.5362 43.8481 26.8551C41.0733 27.1069 38.9133 26.0662 37.5342 23.6661C35.6401 20.4099 37.2186 16.2306 40.7576 14.8878C42.9176 14.0654 44.9447 14.3675 46.789 15.8109C46.922 15.9116 47.0383 16.0459 47.2875 16.2977C46.8887 16.6502 46.5398 16.9859 46.141 17.2712C46.0247 17.3551 45.7423 17.3215 45.626 17.2208C44.9447 16.7341 44.2137 16.4152 43.3663 16.2809C41.1232 15.9284 38.7306 17.8754 38.5976 20.1749C38.4813 22.2897 39.3453 23.9178 41.0401 24.7235C42.5687 25.4452 44.8118 25.2438 46.0413 23.75C46.49 23.2129 46.7724 22.4744 46.6727 21.8701C45.6592 21.8701 44.629 21.8701 43.5989 21.8701C43.1004 21.8701 42.8512 21.624 42.8512 21.1316C42.8512 20.449 43.1946 20.1078 43.8813 20.1078C45.41 20.1078 46.9386 20.1078 48.4506 20.1078C48.5004 20.1078 48.5503 20.1245 48.6334 20.1413L48.65 20.1245Z" fill="#181818"/>
<path d="M10.8335 31.4037C15.004 27.1908 19.1246 23.0283 23.2452 18.8657C24.4914 20.1413 25.7541 21.4505 27.0668 22.7933C27.0335 22.8269 26.9338 22.9276 26.8175 22.9947C22.0655 25.7641 17.3301 28.5336 12.5781 31.303C12.0132 31.6387 11.4317 31.6219 10.8501 31.4373L10.8335 31.4037Z" fill="#181818"/>
<path d="M66.7111 27.9965C67.0434 27.8454 67.193 27.7615 67.3591 27.6944C67.6416 27.5601 67.9573 27.3083 68.2231 27.3587C68.4558 27.3923 68.6053 27.7783 68.8213 27.9965C69.4361 28.6175 70.1671 28.8189 70.9813 28.5672C71.7622 28.3322 72.1942 27.7615 72.3105 26.9559C72.3604 26.637 72.377 26.3013 72.4102 26.0159C71.8951 26.2677 71.4299 26.6034 70.9148 26.7209C69.1038 27.1237 67.2262 25.9656 66.6281 24.1361C65.9136 21.9205 67.1431 19.5371 69.3696 18.8993C70.433 18.5972 71.4133 18.8322 72.3271 19.5707C72.3438 19.0504 72.6428 19.0168 73.025 19.0336C74.1548 19.0504 74.1548 19.0336 74.1548 20.1917C74.1548 22.1555 74.1548 24.1193 74.1548 26.0831C74.1548 26.637 74.0718 27.2076 73.9555 27.7615C73.241 30.7827 69.5025 30.9674 67.9573 29.4903C67.5253 29.0707 67.1764 28.5672 66.7277 28.0301L66.7111 27.9965ZM70.3665 25.1767C71.5794 25.1767 72.4601 24.2032 72.4767 22.8269C72.4767 21.5009 71.5961 20.4603 70.4496 20.4435C69.1868 20.4435 68.2397 21.4338 68.2397 22.8101C68.2397 24.1193 69.1868 25.1599 70.3665 25.1599V25.1767Z" fill="#181818"/>
<path d="M88.7432 20.6952C88.7432 18.9328 88.7432 17.1537 88.7432 15.3913C88.7432 14.9549 88.8595 14.7871 89.3081 14.8039C90.7038 14.8374 92.1161 14.8039 93.5118 14.8878C95.4226 15.0053 96.8681 16.6334 96.8681 18.5132C96.8681 20.3763 95.4558 21.9876 93.5783 22.1555C92.7807 22.2394 91.9666 22.2394 91.169 22.2226C90.7703 22.2226 90.654 22.3737 90.654 22.7597C90.6706 23.8675 90.654 24.992 90.654 26.0998C90.654 26.4859 90.5376 26.6201 90.1389 26.6201C88.7266 26.6201 88.7266 26.6537 88.7266 25.2438C88.7266 23.7164 88.7266 22.2058 88.7266 20.6784L88.7432 20.6952ZM90.654 18.4629C90.654 18.9496 90.654 19.4532 90.654 19.9399C90.654 20.2756 90.7536 20.4099 91.1026 20.4099C91.8004 20.3931 92.4983 20.4099 93.1961 20.4099C94.1764 20.3931 95.0404 19.4364 95.0404 18.4125C95.0404 17.4558 94.2096 16.583 93.246 16.5495C92.5149 16.5327 91.7838 16.5495 91.0361 16.5495C90.737 16.5495 90.6207 16.6669 90.6373 16.9523C90.6373 17.4726 90.6373 17.9761 90.6373 18.4965L90.654 18.4629Z" fill="#181818"/>
<path d="M23.4277 18.4294C24.5077 17.3552 25.5877 16.3145 26.6345 15.2571C27.2881 14.6081 28.0081 14.513 28.7945 14.9718C29.725 15.5089 30.6388 16.046 31.5693 16.5999C32.9151 17.3887 32.9816 19.2854 31.669 20.1246C30.3896 20.9302 29.077 21.652 27.7644 22.4073C27.6647 22.4744 27.4321 22.4744 27.3656 22.4073C26.0696 21.1149 24.7902 19.8225 23.4277 18.4461V18.4294Z" fill="#181818"/>
<path d="M105.607 21.8366C105.491 21.1149 105.076 20.7288 104.494 20.561C103.846 20.3596 103.165 20.326 102.683 20.8631C102.334 21.2323 102.068 21.2659 101.653 21.0477C101.337 20.8799 100.988 20.7624 100.639 20.5945C100.872 19.9399 101.271 19.5203 101.803 19.2182C103.381 18.3119 105.607 18.7147 106.754 20.1246C107.252 20.7288 107.485 21.4505 107.502 22.2394C107.518 23.5318 107.502 24.8242 107.502 26.1166C107.502 26.5027 107.385 26.6705 106.987 26.6369C106.588 26.6034 106.189 26.6369 105.757 26.6369V25.6634C105.175 26.3516 104.561 26.7376 103.763 26.8048C102.55 26.9223 100.839 26.2677 100.556 24.5557C100.374 23.4815 100.939 22.424 102.035 21.9037C103.082 21.4002 104.145 21.3331 105.242 21.7191C105.342 21.7527 105.441 21.803 105.591 21.8534L105.607 21.8366ZM103.531 25.2606C104.428 25.1767 105.275 24.5221 105.441 23.6997C105.458 23.5822 105.358 23.364 105.259 23.3136C104.461 22.9947 103.63 22.9276 102.833 23.3136C102.135 23.6493 102.002 24.5053 102.583 24.8914C102.866 25.076 103.215 25.1431 103.531 25.2606Z" fill="#181818"/>
<path d="M57.7387 22.8772C57.8218 20.1916 59.7658 18.765 61.8926 18.8321C64.4181 18.916 65.847 20.712 65.8138 22.9275C65.764 25.6298 63.8532 27.0397 61.6267 26.9726C59.3836 26.9054 57.6556 25.0088 57.7387 22.8604V22.8772ZM59.6329 22.81C59.6329 24.136 60.5301 25.1766 61.7264 25.1766C63.0058 25.1766 63.9363 24.2031 63.9363 22.81C63.9363 21.4169 63.0723 20.4434 61.8095 20.4434C60.58 20.4434 59.6661 21.4337 59.6495 22.7932L59.6329 22.81Z" fill="#181818"/>
<path d="M49.1483 22.9108C49.032 21.0477 50.3944 18.8489 53.136 18.8322C55.595 18.8322 57.1569 20.477 57.1901 22.894C57.24 25.1935 55.3957 27.023 53.136 26.9894C50.6104 26.9558 48.9987 24.8074 49.1483 22.894V22.9108ZM50.9926 22.8436C50.9926 24.1864 51.9397 25.1767 53.1692 25.1935C54.1661 25.1935 55.296 24.4046 55.3292 22.7933C55.3624 21.4505 54.3821 20.4435 53.136 20.4602C51.9064 20.4602 50.9926 21.4841 50.9926 22.8436Z" fill="#181818"/>
<path d="M79.9699 24.136C80.5182 25.4955 82.429 25.6802 83.3761 24.5556C83.6585 24.2199 83.8579 24.1863 84.1736 24.4717C84.4395 24.7067 84.7552 24.9081 85.0708 25.1431C84.4561 26.1333 83.6087 26.704 82.5287 26.9054C80.3687 27.3083 78.4081 26.0326 77.9428 23.8674C77.4776 21.7022 78.4413 19.5203 80.5847 18.9496C82.7115 18.3957 84.3564 19.5874 85.0542 21.6015C85.1872 21.9708 84.8715 22.0212 84.6721 22.1051C83.2431 22.7261 81.7976 23.3303 80.3687 23.9346C80.2358 23.9849 80.1194 24.0521 79.9533 24.1192L79.9699 24.136ZM82.9441 21.2155C82.5785 20.5777 81.8142 20.3091 81.1496 20.5106C80.3354 20.7623 79.5379 21.7694 79.6874 22.5918C80.7841 22.1219 81.8641 21.6687 82.9441 21.2155Z" fill="#181818"/>
<path d="M108.565 30.1784C109.047 29.121 109.412 28.1475 109.894 27.2244C110.276 26.5026 110.26 25.8816 109.911 25.1431C109.063 23.3136 108.299 21.4505 107.518 19.6042C107.452 19.4532 107.402 19.2853 107.302 19.0168C107.95 19.0168 108.515 19 109.08 19.0335C109.196 19.0335 109.346 19.2853 109.412 19.4532C109.994 20.863 110.542 22.2729 111.107 23.666C111.14 23.75 111.19 23.8507 111.29 24.0185C111.572 23.2968 111.822 22.6758 112.071 22.038C112.403 21.1652 112.752 20.2924 113.068 19.4196C113.184 19.1007 113.35 18.9832 113.683 19C114.148 19.0168 114.63 19 115.178 19C115.095 19.235 115.045 19.4028 114.979 19.5539C113.566 22.8772 112.137 26.2005 110.725 29.5406C110.526 30.0274 110.26 30.2288 109.745 30.1784C109.396 30.1448 109.047 30.1784 108.565 30.1784Z" fill="#181818"/>
<path d="M99.5265 20.7455C99.5265 22.5415 99.5265 24.3206 99.5265 26.1166C99.5265 26.5026 99.4268 26.6369 99.028 26.6369C97.6655 26.6369 97.6655 26.6537 97.6655 25.2941C97.6655 22.0044 97.6655 18.7146 97.6655 15.4249C97.6655 14.9717 97.7818 14.8038 98.2471 14.8038C99.5265 14.8038 99.5265 14.8038 99.5265 16.0795C99.5265 17.6404 99.5265 19.2014 99.5265 20.7455Z" fill="#181818"/>
<path d="M76.9957 14.8039C76.9957 15.0892 76.9957 15.2739 76.9957 15.4585C76.9957 18.9665 76.9957 22.4576 76.9957 25.9656C76.9957 26.4691 76.8794 26.6369 76.3643 26.6369C75.1348 26.6034 75.1348 26.6369 75.1348 25.4117C75.1348 22.0884 75.1348 18.765 75.1348 15.4249C75.1348 14.955 75.2511 14.7368 75.7495 14.7871C76.1483 14.8207 76.5471 14.7871 76.9957 14.7871V14.8039Z" fill="#181818"/>
<path d="M68.0898 6.46203C69.8178 6.29418 71.3132 8.02298 71.3464 9.61751C71.3797 11.4806 69.8344 13.0415 68.0732 13.008C66.2455 12.9744 64.9163 11.5813 64.8166 9.75178C64.7335 8.03977 66.3286 6.26062 68.0898 6.44524V6.46203ZM68.04 7.26768C66.7938 7.26768 65.7471 8.39224 65.7471 9.735C65.7471 11.0106 66.8437 12.152 68.0898 12.1855C69.3028 12.2191 70.416 10.9938 70.416 9.66786C70.416 8.37546 69.336 7.28447 68.04 7.26768Z" fill="#181818"/>
<path d="M40.2427 10.356V9.44968C41.1898 9.44968 42.1202 9.43289 43.0341 9.44968C43.4495 9.44968 43.3165 9.85251 43.2999 10.0707C43.2501 11.2288 42.7682 12.152 41.7048 12.6723C40.5916 13.2094 39.4784 13.159 38.4482 12.4709C37.3516 11.7324 36.8199 10.6414 37.0027 9.28183C37.2021 7.83837 37.9996 6.86487 39.3953 6.52918C40.5584 6.24385 41.6051 6.52918 42.5024 7.51947C42.303 7.7041 42.1202 7.87194 41.9042 8.07335C41.4224 7.60339 40.8907 7.33484 40.2094 7.35162C39.2458 7.38519 38.3485 8.023 38.0328 8.97971C37.7005 10.0036 37.9996 11.0778 38.7639 11.6652C39.7608 12.4037 40.7411 12.4709 41.6218 11.8331C41.7713 11.7156 41.9541 11.5981 42.0371 11.447C42.1867 11.1449 42.2864 10.8092 42.4027 10.4903C42.1202 10.44 41.8544 10.3728 41.5719 10.356C41.1399 10.3393 40.7079 10.356 40.2427 10.356Z" fill="#181818"/>
<path d="M77.1622 12.8401C76.6139 13.0079 76.265 12.8736 75.9659 12.3701C75.1683 11.0274 74.3043 9.70139 73.4736 8.37541C73.4071 8.27471 73.3406 8.174 73.2077 7.97259C73.2077 9.53354 73.2077 10.977 73.2077 12.4205C73.2077 12.6722 73.2243 12.9072 72.8422 12.9072C72.4434 12.9072 72.3936 12.7226 72.3936 12.3869C72.3936 10.6413 72.3936 8.87895 72.3936 7.13337C72.3936 6.94874 72.5099 6.61305 72.6096 6.59626C72.9253 6.54591 73.3074 6.42842 73.5566 6.83125C73.9886 7.53619 74.4206 8.24114 74.8526 8.94609C75.3013 9.6846 75.7665 10.4399 76.2982 11.3127V6.59626H77.1456V12.8401H77.1622Z" fill="#181818"/>
<path d="M47.9855 11.9841C48.1516 12.8401 48.1184 12.9072 47.3707 12.9072C46.4901 12.9072 45.6261 12.9072 44.7455 12.9072C44.4298 12.9072 44.3135 12.8065 44.3135 12.4708C44.3135 10.6413 44.3135 8.82858 44.3135 6.99908C44.3135 6.69696 44.3799 6.5459 44.7122 6.5459C45.6926 6.5459 46.6729 6.5459 47.6532 6.5459C47.9523 6.5459 48.0519 6.6466 48.0519 6.94872C48.0519 7.28441 47.9356 7.38512 47.6199 7.36834C46.9553 7.36834 46.2907 7.36834 45.6261 7.36834C45.3436 7.36834 45.2273 7.46904 45.2107 7.77116C45.1276 9.23141 45.1276 9.23141 46.5566 9.23141C46.8058 9.23141 47.055 9.23141 47.2876 9.23141C47.5867 9.23141 47.8359 9.21463 47.8359 9.65102C47.8359 10.121 47.5701 10.1042 47.2544 10.1042C46.7061 10.1042 46.1744 10.1042 45.6261 10.1042C45.3104 10.1042 45.2107 10.2217 45.1941 10.5406C45.1442 11.9841 45.1276 11.9841 46.5566 11.9841C47.0218 11.9841 47.487 11.9841 47.9356 11.9841H47.9855Z" fill="#181818"/>
<path d="M50.5273 12.8233C50.5273 11.1952 50.5107 9.58387 50.5273 7.97256C50.5273 7.46903 50.3778 7.30118 49.9125 7.36832C49.6467 7.40189 49.3809 7.41867 49.1316 7.36832C48.9821 7.33475 48.7993 7.11655 48.7993 6.98228C48.7993 6.848 48.9987 6.59624 49.115 6.57945C50.4609 6.54588 51.8067 6.56267 53.1858 6.56267V7.38511C52.7372 7.38511 52.3218 7.40189 51.9064 7.38511C51.5409 7.36832 51.4246 7.5026 51.4246 7.87186C51.4412 9.29853 51.4246 10.742 51.4246 12.1687C51.4246 12.9743 51.4079 13.0079 50.5107 12.8401L50.5273 12.8233Z" fill="#181818"/>
<path d="M57.9544 7.38518C57.8547 6.56274 57.8547 6.56274 58.5526 6.56274C59.7655 6.56274 60.9618 6.56274 62.1581 6.56274C62.3409 7.31804 62.291 7.38518 61.5932 7.38518C60.8621 7.38518 60.4966 7.76004 60.4966 8.50974C60.4966 9.76857 60.4966 11.0274 60.4966 12.2862C60.4966 12.4709 60.48 12.6723 60.4633 12.8905H59.7156C59.7156 12.6723 59.6824 12.4709 59.6824 12.2527C59.6824 10.826 59.6824 9.38253 59.6824 7.95585C59.6824 7.50267 59.5495 7.35161 59.1175 7.38518C58.7353 7.41875 58.3532 7.38518 57.9544 7.38518Z" fill="#181818"/>
<path d="M57.0741 9.70144C57.0741 10.6078 57.0741 11.4974 57.0741 12.4037C57.0741 12.8066 56.9245 12.9073 56.5424 12.9073C56.1436 12.9073 56.0938 12.7059 56.0938 12.3869C56.0938 10.6414 56.0938 8.89578 56.0938 7.13341C56.0938 6.83129 56.0938 6.54596 56.5424 6.52917C56.9411 6.52917 57.0741 6.64667 57.0574 7.03271C57.0408 7.92228 57.0574 8.79508 57.0574 9.68465L57.0741 9.70144Z" fill="#181818"/>
<path d="M163.463 14.7703C161.402 16.0124 160.372 17.8083 160.588 20.1749C160.788 22.508 162.067 24.1193 164.21 25.0592C163.546 26.7544 162.649 28.2315 161.585 29.6246C160.97 30.4302 160.306 31.1687 159.392 31.6555C158.495 32.1255 157.581 32.1087 156.65 31.7562C155.936 31.4876 155.222 31.1687 154.474 31.0009C153.427 30.7491 152.347 30.9002 151.4 31.4037C148.808 32.7465 147.229 31.7394 145.834 30.0106C143.973 27.7279 142.727 25.1431 142.261 22.2058C141.979 20.4267 141.913 18.6308 142.527 16.9187C143.508 14.1829 145.385 12.4373 148.31 12.1184C149.19 12.0177 150.121 12.3534 151.018 12.5548C151.633 12.6891 152.214 12.9408 152.829 13.1087C153.842 13.394 154.773 13.0415 155.687 12.6723C157.182 12.0848 158.694 11.8498 160.239 12.3869C161.552 12.8401 162.599 13.6458 163.479 14.7871L163.463 14.7703Z" fill="#181818"/>
<path d="M194.135 31.1351C193.453 31.1351 192.888 31.1351 192.307 31.1351C192.191 31.1351 192.091 30.9505 191.991 30.833C191.958 30.7827 191.991 30.6987 191.991 30.6316C191.991 27.1404 191.975 23.6493 191.958 20.1749C191.958 20.0406 191.975 19.8896 191.991 19.7217H193.786C193.836 20.0238 193.885 20.3595 193.935 20.5945C194.467 20.2756 194.999 19.8224 195.613 19.6378C197.724 19.0168 199.767 20.4267 200 22.659C200.083 23.4646 200.066 24.3207 199.9 25.1263C199.368 27.8286 196.195 29.0035 194.151 27.1572V31.1687L194.135 31.1351ZM194.085 23.8171C194.085 23.8171 194.101 23.8171 194.118 23.8171C194.118 24.0521 194.118 24.2703 194.118 24.5053C194.168 25.4788 194.816 26.2005 195.763 26.3516C196.494 26.4691 197.325 25.932 197.657 25.1263C197.989 24.3207 198.039 23.4814 197.773 22.6422C197.474 21.7023 196.776 21.1148 195.962 21.1484C195.132 21.1652 194.434 21.803 194.218 22.7765C194.135 23.1122 194.135 23.4646 194.101 23.8171H194.085Z" fill="#181818"/>
<path d="M184.514 27.1908C184.514 28.3825 184.514 29.4903 184.514 30.6148C184.514 31.0177 184.398 31.1855 183.966 31.1519C183.601 31.1184 183.235 31.1519 182.87 31.1855C182.487 31.2191 182.371 31.0512 182.371 30.6652C182.371 27.9797 182.371 25.2774 182.371 22.5919C182.371 21.6519 182.371 20.712 182.371 19.6882C182.853 19.6882 183.401 19.6882 183.95 19.6882C184.033 19.6882 184.166 19.8896 184.199 20.0071C184.249 20.2421 184.232 20.477 184.249 20.7624C185.628 19.0839 187.838 19.1678 189.017 20.1749C189.914 20.947 190.33 21.9709 190.413 23.1122C190.513 24.4046 190.313 25.6466 189.482 26.7209C188.286 28.265 185.927 28.4832 184.714 27.3083C184.681 27.2747 184.631 27.258 184.514 27.1908ZM188.336 23.7668C188.236 23.3136 188.17 22.8269 188.004 22.3905C187.705 21.568 186.89 21.0813 186.159 21.1988C185.246 21.333 184.581 22.0212 184.531 22.9444C184.498 23.5318 184.498 24.1193 184.531 24.6899C184.581 25.4284 184.963 25.9488 185.644 26.2341C186.326 26.5194 186.957 26.3852 187.489 25.8984C188.12 25.3445 188.253 24.5892 188.336 23.7668Z" fill="#181818"/>
<path d="M171.189 27.8286C171.721 26.1502 172.219 24.5724 172.718 22.9947C173.332 21.0309 173.98 19.0671 174.579 17.1033C174.728 16.6166 174.944 16.4655 175.426 16.4991C175.941 16.5327 176.473 16.5159 177.004 16.4991C177.303 16.4991 177.486 16.583 177.586 16.8851C178.699 20.3931 179.829 23.901 180.959 27.409C180.992 27.5265 181.009 27.644 181.042 27.8286C180.344 27.8286 179.679 27.8286 179.031 27.8286C178.915 27.8286 178.766 27.6272 178.716 27.4929C178.45 26.704 178.201 25.9152 177.968 25.1263C177.868 24.7906 177.702 24.6563 177.337 24.6563C176.506 24.6899 175.692 24.6731 174.861 24.6563C174.512 24.6563 174.329 24.757 174.23 25.1263C174.03 25.8984 173.748 26.6369 173.548 27.409C173.449 27.7783 173.266 27.879 172.917 27.8622C172.385 27.8454 171.837 27.8622 171.206 27.8622L171.189 27.8286ZM176.041 18.53C175.609 19.9903 175.193 21.4505 174.745 22.9611H177.37C176.921 21.4505 176.473 19.9903 176.041 18.53Z" fill="#181818"/>
<path d="M205.084 25.6803C206.048 25.8817 206.895 26.1167 207.776 26.2174C208.74 26.3349 209.52 25.8649 209.753 25.1767C209.936 24.6396 209.82 24.1529 209.421 23.834C209.039 23.5151 208.59 23.2633 208.125 23.0619C207.244 22.6926 206.364 22.3569 205.682 21.6688C204.469 20.4435 204.586 18.2783 205.965 17.2713C207.626 16.046 209.437 16.1803 211.265 16.8349C211.365 16.8684 211.498 17.1202 211.464 17.2209C211.348 17.6909 211.182 18.1608 211.082 18.5133C210.202 18.3958 209.388 18.2615 208.557 18.1776C208.291 18.1608 207.992 18.2448 207.759 18.3622C206.862 18.7819 206.696 19.7554 207.477 20.3596C207.975 20.7456 208.623 20.9471 209.172 21.2827C209.869 21.6856 210.65 22.0045 211.199 22.5584C212.611 23.985 212.162 26.4691 210.335 27.4259C208.573 28.3658 206.746 28.1979 204.951 27.4594C204.835 27.4091 204.685 27.1909 204.719 27.0734C204.818 26.5698 204.968 26.0831 205.084 25.6971V25.6803Z" fill="#181818"/>
<path d="M227 23.7164C226.95 27.174 223.71 29.1546 220.736 27.5097C219.689 26.939 219.058 26.0159 218.858 24.841C218.609 23.3472 218.759 21.9373 219.822 20.7624C220.969 19.4867 222.946 19.1175 224.674 19.8056C226.136 20.3931 227.033 21.8869 227 23.7332V23.7164ZM224.923 23.7164C224.74 23.1122 224.641 22.4744 224.358 21.954C223.71 20.7288 222.082 20.7288 221.417 21.9373C220.769 23.1122 220.753 24.3542 221.417 25.5291C222.115 26.788 223.71 26.7712 224.375 25.4956C224.657 24.9752 224.74 24.3374 224.94 23.7164H224.923Z" fill="#181818"/>
<path d="M235.939 24.4045C235.873 25.2102 236.355 25.8816 237.119 26.1837C238.016 26.5194 238.913 26.4187 239.811 26.2173C240.01 26.1669 240.209 26.1166 240.509 26.0326C240.608 26.4858 240.725 26.9222 240.808 27.3586C240.808 27.4257 240.725 27.5768 240.658 27.5936C238.847 28.1643 237.053 28.3992 235.358 27.2915C234.195 26.5194 233.813 25.3109 233.796 23.9849C233.796 22.659 234.128 21.4337 235.142 20.4938C236.255 19.4531 237.568 19.2685 238.947 19.6713C240.243 20.0406 240.891 21.0644 241.157 22.3233C241.256 22.8436 241.24 23.3807 241.273 23.901C241.306 24.287 241.14 24.4213 240.741 24.4213C239.362 24.4213 237.966 24.4213 236.587 24.4213C236.388 24.4213 236.172 24.4213 235.939 24.4213V24.4045ZM239.196 22.81C239.229 21.7022 238.565 20.9469 237.634 20.9637C236.687 20.9637 235.889 21.8365 235.939 22.81H239.196Z" fill="#181818"/>
<path d="M212.794 21.2323V19.6714C213.06 19.6714 213.309 19.6714 213.575 19.6714C213.841 19.6714 213.94 19.5706 213.94 19.3021C213.94 18.8153 213.974 18.3286 214.007 17.8251C214.622 17.6572 215.253 17.4894 216.001 17.288C216.001 17.7747 216.001 18.1608 216.001 18.5636C216.001 19.3021 216.377 19.6714 217.131 19.6714C217.363 19.6714 217.579 19.6714 217.862 19.6714V21.2491H216.017C216.017 21.954 216.017 22.6086 216.017 23.2464C216.017 23.8339 216.017 24.4214 216.017 24.992C216.017 26.0159 216.483 26.3851 217.496 26.2341C217.563 26.2341 217.629 26.2173 217.712 26.2005C217.745 26.2509 217.795 26.3012 217.795 26.3348C217.795 26.8215 217.795 27.2915 217.762 27.7782C217.147 27.8454 216.516 28.0468 215.918 27.9629C214.638 27.795 213.974 26.9222 213.974 25.5963C213.974 24.3542 213.957 23.1122 213.974 21.8701C213.974 21.3666 213.874 21.1316 213.342 21.2155C213.193 21.2323 213.027 21.2155 212.827 21.1987L212.794 21.2323Z" fill="#181818"/>
<path d="M228.562 27.8287V19.6546C229.06 19.6546 229.609 19.6546 230.14 19.6546C230.24 19.6546 230.39 19.8561 230.39 19.9736C230.423 20.2925 230.39 20.6114 230.39 21.0645C230.822 20.326 231.237 19.7554 232.001 19.5539C232.118 19.5204 232.234 19.4868 232.35 19.47C233.115 19.4029 233.148 19.4197 233.148 20.2085C233.148 20.5778 233.148 20.947 233.148 21.3163C233.148 21.3667 233.115 21.417 233.098 21.4842C232.865 21.4842 232.616 21.4338 232.384 21.4506C231.42 21.5681 230.755 22.2562 230.739 23.2633C230.705 24.5893 230.705 25.9152 230.739 27.2412C230.739 27.6776 230.622 27.8455 230.174 27.8119C229.675 27.7783 229.16 27.8119 228.562 27.8119V27.8287Z" fill="#181818"/>
<path d="M157.963 6.04236C158.528 9.38246 155.305 12.6554 152.779 12.2694C152.098 9.90278 154.64 6.24377 157.963 6.04236Z" fill="#181818"/>
<path d="M171.587 10.5742C171.587 9.7014 171.604 8.8454 171.587 7.9726C171.571 7.46907 171.687 7.2173 172.252 7.23409C173.083 7.28444 173.947 7.15017 174.744 7.31801C176.688 7.72084 177.336 9.29858 177.037 11.1617C176.755 12.9408 175.559 13.9311 173.731 14.015C173.232 14.0318 172.717 14.015 172.202 14.015C171.77 14.015 171.571 13.8639 171.587 13.394C171.621 12.4541 171.587 11.5141 171.587 10.591V10.5742ZM172.551 10.6078C172.551 11.1617 172.551 11.6988 172.551 12.2526C172.551 12.9016 172.867 13.2205 173.498 13.2094C175.625 13.1758 176.871 10.8931 175.741 9.04681C175.509 8.67755 175.077 8.32508 174.678 8.17402C174.163 7.98939 173.581 7.98939 173.033 7.95582C172.701 7.92225 172.535 8.10688 172.551 8.47614C172.568 9.18109 172.551 9.88603 172.551 10.6078Z" fill="#181818"/>
<path d="M211.531 9.51681C211.531 8.72794 211.548 8.02299 211.531 7.31805C211.531 6.93201 211.664 6.8313 212.029 6.8313C212.378 6.8313 212.528 6.93201 212.528 7.31805C212.528 9.38254 212.528 11.447 212.545 13.5283C212.545 13.8304 212.445 13.9311 212.162 13.9479C211.747 13.9815 211.597 13.7801 211.647 13.2765C211.116 13.8472 210.551 14.1325 209.869 14.0318C208.806 13.8976 208.208 13.2262 208.025 11.917C207.859 10.6917 208.424 9.21469 209.869 8.96292C210.385 8.879 210.9 8.99649 211.548 9.48324L211.531 9.51681ZM211.664 11.5813C211.664 11.5813 211.581 11.5477 211.531 11.5309C211.531 11.3463 211.531 11.1785 211.531 10.9938C211.514 10.4064 211.149 9.93642 210.601 9.78536C210.135 9.65109 209.604 9.86928 209.271 10.3225C208.856 10.9099 208.839 12.0513 209.221 12.6387C209.653 13.3101 210.634 13.4779 211.116 12.8737C211.398 12.5212 211.481 12.0009 211.664 11.5645V11.5813Z" fill="#181818"/>
<path d="M184.763 12.8066C185.112 11.6653 185.445 10.6246 185.76 9.56719C185.843 9.29864 185.926 9.04688 186.309 9.06366C186.674 9.06366 186.774 9.26507 186.873 9.56719C187.189 10.6078 187.505 11.6653 187.837 12.7562C188.12 11.7492 188.385 10.7589 188.668 9.78539C188.812 9.25948 189.183 9.05247 189.781 9.16437C189.499 10.0707 189.216 10.9771 188.934 11.8667C188.751 12.4206 188.568 12.9744 188.402 13.5283C188.319 13.8304 188.186 13.9647 187.854 13.9479C187.555 13.9479 187.339 13.9144 187.239 13.5451C186.94 12.5045 186.608 11.4638 186.275 10.44C185.943 11.4638 185.594 12.4877 185.262 13.5283C185.162 13.8472 184.996 13.9815 184.664 13.9647C184.348 13.9647 184.198 13.8304 184.115 13.5283C183.733 12.1856 183.318 10.8596 182.919 9.53363C182.886 9.41613 182.886 9.29864 182.869 9.18115C183.667 8.97974 183.766 9.04688 183.966 9.76861C184.215 10.7589 184.464 11.7492 184.747 12.8234L184.763 12.8066Z" fill="#181818"/>
<path d="M231.935 13.8471C231.935 13.6625 231.935 13.4779 231.935 13.2933C231.935 11.4302 231.935 9.5671 231.935 7.72081C231.935 7.38512 231.669 6.86481 232.4 6.84802C233.164 6.84802 232.882 7.40191 232.899 7.75438C232.932 8.35862 232.899 8.94608 232.899 9.61746C233.48 9.19785 234.012 8.86216 234.726 9.04679C235.441 9.2482 235.889 9.71816 235.956 10.4063C236.055 11.4637 236.072 12.5212 236.039 13.5786C236.006 14.2332 235.474 13.8639 235.075 13.9143C235.075 13.0415 235.075 12.2023 235.075 11.3798C235.075 11.1281 235.075 10.8763 235.009 10.6413C234.859 10.0371 234.527 9.7853 233.962 9.83566C233.397 9.88601 232.948 10.2888 232.932 10.8427C232.899 11.598 232.932 12.3701 232.915 13.1254C232.915 14.015 232.899 14.0486 231.935 13.8471Z" fill="#181818"/>
<path d="M182.438 11.5141C182.537 12.7394 181.69 14.0486 180.045 14.0654C178.716 14.0654 177.752 12.9912 177.752 11.5645C177.752 10.0539 178.749 8.92932 180.128 8.96289C181.723 8.99646 182.537 10.1714 182.438 11.5141ZM178.699 11.5309C178.699 11.5309 178.732 11.5309 178.749 11.5309C178.749 11.6652 178.749 11.8162 178.765 11.9505C178.865 12.6219 179.413 13.2261 179.995 13.2765C180.593 13.3268 181.241 12.9072 181.357 12.2023C181.441 11.6652 181.407 11.0777 181.274 10.5574C181.141 10.0035 180.693 9.70141 180.078 9.71819C179.53 9.73497 179.098 10.0203 178.898 10.591C178.799 10.8763 178.765 11.1952 178.699 11.5141V11.5309Z" fill="#181818"/>
<path d="M220.221 11.5309C220.221 13.0415 219.274 14.0486 217.862 14.0822C216.516 14.0989 215.502 12.9912 215.519 11.5141C215.535 10.0539 216.549 8.9629 217.911 8.97968C219.357 8.97968 220.304 10.0707 220.204 11.5477L220.221 11.5309ZM216.449 11.5309C216.449 11.5309 216.499 11.5309 216.532 11.5477C216.532 11.6652 216.532 11.7995 216.532 11.917C216.599 12.5883 217.147 13.2262 217.729 13.2933C218.327 13.3772 218.892 12.9744 219.141 12.2862C219.374 11.6484 219.307 11.0442 219.008 10.4399C218.792 10.0035 218.443 9.75177 217.928 9.73498C217.396 9.73498 216.998 9.96997 216.782 10.4231C216.615 10.7588 216.566 11.1449 216.449 11.5141V11.5309Z" fill="#181818"/>
<path d="M197.956 11.5813C197.956 10.0203 198.887 8.97968 200.299 8.96289C201.661 8.96289 202.642 10.0035 202.642 11.4638C202.642 13.0079 201.628 14.0989 200.216 14.0821C198.853 14.0486 197.956 13.0583 197.939 11.5813H197.956ZM201.661 11.5813C201.661 11.5813 201.661 11.5813 201.645 11.5813C201.645 11.447 201.645 11.2959 201.645 11.1617C201.562 10.3728 201.03 9.80211 200.382 9.76854C199.618 9.73498 199.119 10.1882 198.986 11.0442C198.936 11.3631 198.936 11.7155 198.986 12.0344C199.103 12.773 199.634 13.2933 200.232 13.3268C200.847 13.3604 201.445 12.8401 201.611 12.1184C201.645 11.9505 201.645 11.7659 201.661 11.598V11.5813Z" fill="#181818"/>
<path d="M237.983 11.7659C238.033 13.1254 238.897 13.5114 240.741 13.0918C241.09 13.6122 241.04 13.7968 240.458 13.9143C238.963 14.1996 237.999 14.015 237.385 13.0583C236.537 11.7323 237.052 9.33212 238.88 9.01321C240.276 8.76145 241.622 10.121 241.239 11.5141C241.206 11.6316 240.957 11.7491 240.807 11.7491C240.076 11.7659 239.329 11.7491 238.598 11.7491C238.415 11.7491 238.215 11.7491 237.983 11.7491V11.7659ZM240.326 10.9434C240.143 10.0203 239.827 9.71816 239.129 9.73495C238.498 9.75173 238.099 10.1713 238.016 10.9434H240.326Z" fill="#181818"/>
<path d="M222.132 9.66781C222.63 9.18106 223.162 8.89573 223.81 8.97965C224.691 9.09714 225.239 9.61746 225.322 10.6245C225.405 11.6987 225.339 12.7729 225.339 13.8471C224.508 14.0821 224.375 13.9982 224.375 13.1925C224.375 12.454 224.375 11.6987 224.375 10.9602C224.358 10.2049 223.993 9.81887 223.345 9.81887C222.713 9.81887 222.231 10.3056 222.231 10.977C222.231 11.9337 222.231 12.8904 222.231 13.8807C221.999 13.8975 221.799 13.9646 221.633 13.9143C221.484 13.8639 221.268 13.6793 221.268 13.5618C221.235 12.1855 221.235 10.7924 221.251 9.41605C221.251 9.29855 221.467 9.08036 221.567 9.08036C221.75 9.08036 221.932 9.21463 222.099 9.33212C222.148 9.36569 222.132 9.51675 222.148 9.65103L222.132 9.66781Z" fill="#181818"/>
<path d="M207.062 14.0151C206.679 13.9143 206.397 13.8304 206.065 13.7297C205.599 13.8136 205.034 14.0318 204.486 13.9983C203.772 13.9647 203.406 13.5283 203.273 12.8234C203.173 12.2527 203.456 11.5645 204.004 11.3128C204.47 11.0946 204.985 10.9939 205.5 10.8596C205.666 10.8092 205.849 10.8428 205.998 10.826C206.181 9.73502 205.533 9.50004 203.838 10.0204C203.556 9.41611 203.556 9.34898 204.154 9.16435C204.47 9.06364 204.802 8.97972 205.118 8.96293C206.264 8.8958 206.962 9.53361 207.045 10.7924C207.111 11.8163 207.045 12.8401 207.045 14.0151H207.062ZM206.114 11.9338C206.114 11.9338 205.948 11.5645 205.865 11.5813C205.4 11.6484 204.902 11.7324 204.503 11.9674C204.32 12.0848 204.237 12.5884 204.32 12.8401C204.403 13.0583 204.785 13.2598 205.051 13.2765C205.682 13.3269 206.098 12.8234 206.114 11.9338Z" fill="#181818"/>
<path d="M194.633 13.9143H193.719C193.719 13.394 193.719 12.8737 193.719 12.3702C193.719 11.8163 193.703 11.2792 193.653 10.7253C193.603 10.205 193.337 9.86928 192.789 9.83571C192.257 9.78536 191.759 10.0875 191.609 10.591C191.526 10.8596 191.51 11.1449 191.51 11.4302C191.51 12.2359 191.51 13.0583 191.51 13.8472C190.679 14.0822 190.596 14.015 190.579 13.2262C190.579 11.9673 190.529 10.7085 190.546 9.46646C190.546 8.82865 191.028 9.16434 191.343 9.0972C191.377 9.29861 191.393 9.48324 191.41 9.6343C191.775 9.44967 192.124 9.18112 192.523 9.06363C193.57 8.76151 194.567 9.43289 194.633 10.5239C194.7 11.6317 194.633 12.7394 194.633 13.9143Z" fill="#181818"/>
<path d="M228.894 9.98671C228.628 9.76851 228.146 10.0538 228.146 9.48318C228.146 8.94608 228.545 9.11392 228.794 9.03C229.016 8.19078 229.376 7.78795 229.875 7.82152C229.875 8.0565 229.891 8.29148 229.875 8.54325C229.825 8.96286 229.991 9.09714 230.406 9.08035C231.121 9.06357 231.121 9.08035 231.004 9.7853C230.971 9.80208 230.954 9.83565 230.921 9.83565C230.223 9.90279 229.875 10.3056 229.875 11.0441C229.875 11.5645 229.875 12.068 229.875 12.5883C229.875 13.0079 230.057 13.2765 230.506 13.2261C230.822 13.1925 231.004 13.2765 231.021 13.6457C231.021 14.0485 230.738 14.0318 230.489 14.0318C229.376 14.0821 228.927 13.6625 228.894 12.5212C228.861 11.6819 228.894 10.8259 228.894 9.98671Z" fill="#181818"/>
<path d="M196.959 13.8976H195.996C195.996 13.7465 195.962 13.5954 195.962 13.4444C195.962 11.447 195.962 9.44967 195.962 7.45232C195.962 7.0495 196.012 6.8313 196.494 6.8313C196.976 6.8313 196.976 7.09985 196.976 7.45232C196.976 9.4161 196.976 11.3799 196.976 13.3269C196.976 13.4947 196.976 13.6794 196.976 13.8808L196.959 13.8976Z" fill="#181818"/>
</g>
<defs>
<clipPath id="clip0_162_2724">
<rect width="254" height="38" fill="white"/>
</clipPath>
</defs>
</svg>
